<?xml version="1.0" encoding="utf-8" ?><svg xmlns="http://www.w3.org/2000/svg" xmlns:xlink="http://www.w3.org/1999/xlink" width="588" height="588" viewBox="0 0 588 588"><path fill="#242323" transform="scale(0.574219 0.574219)" d="M0 0L1024 0L1024 1024L0 1024L0 0Z"/><path fill="#F3F2F2" transform="scale(0.574219 0.574219)" d="M734.776 846.781C638.31 866.039 556.554 824.489 472.843 783.311C445.627 769.625 417.772 757.25 389.373 746.228C356.872 733.905 323.648 723.576 289.889 715.299C270.501 710.603 251.047 706.189 231.531 702.059C187.954 692.567 142.705 683.186 107.417 653.02C101.749 648.175 98.0808 635.743 95.6465 628.509C83.571 593.451 76.5675 556.848 74.8485 519.809C69.5816 405.028 110.205 292.869 187.754 208.085C259.355 130.539 350.836 81.4385 455.724 68.6917C463.049 67.8015 470.488 65.0126 477.876 64.0751C488.136 62.773 498.444 62.9834 508.778 62.5689C511.336 65.1058 516.27 73.6393 518.585 77.1319C522.906 83.679 527.588 89.9809 532.609 96.0082C558.871 127.267 588.883 153.588 621.147 178.452C694.529 235.002 780.609 270.812 857.309 321.958C869.022 329.768 880.705 339.83 891.376 348.991L891.685 350.308L891.038 350.643C890.345 350.326 889.676 349.861 888.954 349.898C885.061 347.437 879.58 343.098 875.512 340.284C868.103 335.262 860.495 330.54 852.706 326.13C812.392 303.237 770.447 284.844 729.805 263.198C646.175 218.656 547.532 155.264 500.522 70.9023C432.831 75.6167 440.686 131.14 470.994 174.396C524.732 251.092 616.252 296.6 700.317 332.231C724.148 342.333 749.53 350.356 773.615 359.864C831.543 381.207 894.025 406.878 925.02 464.03C931.402 475.797 930.773 480.055 930.947 493.34C931.373 523.221 928.82 553.07 923.325 582.444C901.699 696.522 835.55 797.298 739.489 862.517C646.451 925.664 532.017 948.966 421.694 927.23C395.308 922.33 369.483 914.779 344.613 904.694C271.428 874.848 198.061 817.948 153.499 752.302C158.846 751.9 166.666 752.361 172.194 752.583C187.442 753.129 202.659 754.339 217.802 756.21C300.309 766.344 368.95 798.796 439.12 840.829C489.174 870.812 546.971 892.783 604.04 904.131C615.344 906.379 624.651 901.709 635.265 898.104C670.84 886.127 704.392 868.823 734.776 846.781Z"/><path fill="#242323" transform="scale(0.574219 0.574219)" d="M437.195 86.666C438.738 86.3906 439.324 86.1504 440.828 86.6303C440.846 87.3242 437.056 96.4232 436.277 99.8607C430.289 126.287 441.814 154.808 455.515 176.954C504.912 256.794 615.339 313.921 700.259 347.394C720.461 355.196 740.755 362.76 761.135 370.085C813.916 389.339 876.279 413.13 907.706 463.14L907.283 463.368C853.893 492.422 821.447 550.53 806.739 607.5C797.891 641.769 792.352 676.234 781.957 710.26C768.806 753.303 748.665 794.027 714.932 824.632C710.867 828.321 700.978 837.108 696.428 839.553C640.287 840.06 584.751 820.76 534.552 797.529C512.156 787.166 490.307 775.67 468.106 764.948C434.165 748.342 399.159 734.009 363.317 722.045C332.816 711.922 301.816 703.371 270.438 696.425C228.239 686.96 183.052 681.478 144.021 661.313C117.037 647.372 115.115 641.691 106.593 613.635C101.723 598.421 98.9154 586.635 95.4842 571.162C154.412 522.732 179.907 470.667 195.803 396.554C202.168 366.877 206.563 333.648 214.672 304.667C225.544 264.841 244.397 227.64 270.086 195.324C292.157 167.893 316.789 147.846 346.22 129.287C346.332 129.187 346.445 129.087 346.557 128.987C331.292 131.727 304.597 151.794 292.187 161.396C238.126 202.373 204.541 269.964 192.966 336.245C177.493 424.848 161.242 497.249 94.8222 563.638C94.4022 562.015 94.1774 560.785 93.9164 559.132C77.8408 451.921 104.822 342.704 168.971 255.311C216.554 188.647 282.721 137.478 359.211 108.194C382.345 99.2528 412.516 90.5364 437.195 86.666Z"/><path fill="#F3F2F2" transform="scale(0.574219 0.574219)" d="M236.903 434.517C241.672 434.324 247.815 434.609 252.656 434.88C276.295 436.2 302.808 431.245 324.904 441.477C364.148 459.649 366.788 520.262 331.495 543.935C312.827 555.25 293.908 553.206 273.258 553.047C263.307 552.954 253.355 553.047 243.407 553.327C241.353 553.366 238.729 553.758 237.514 552.587C238.46 547.577 252.158 551.693 252.08 537.396C251.886 507.162 253.004 476.555 251.838 446.386C251.614 440.592 241.742 438.238 237.766 437.347C237.249 437.231 237.027 435.134 236.903 434.517Z"/><path fill="#242323" transform="scale(0.574219 0.574219)" d="M267.765 443.087C285.011 442.98 307.823 440.558 321.396 452.72C342.657 471.771 344.076 511.547 326.084 533.038C325.726 533.385 325.36 533.724 324.986 534.055C308.824 548.618 289.019 545.526 268.584 544.478C267.612 536.857 268.09 519.975 268.011 511.77C267.791 488.922 268.338 465.964 267.765 443.087Z"/><path fill="#F3F2F2" transform="scale(0.574219 0.574219)" d="M519.731 432.661C524.124 434.052 595.483 512.464 604.553 522.377C603.424 509.67 605.706 449.476 602.945 443.778C600.555 438.847 594.948 439.506 590.671 437.764C589.483 437.28 589.078 436.799 588.57 435.667L589.24 434.804C591.177 434.114 625.19 434.216 628.558 434.517C629.709 435.282 629.271 434.79 629.709 436.168C627.737 439.579 620.753 438.928 618.465 440.947C613.217 445.578 614.977 461.441 614.965 468.161L614.865 527.355C614.858 535.294 615.017 544.129 614.743 552.091C614.693 553.541 614.349 553.533 613.531 554.114C610.634 552.426 594.146 534.284 591.073 531.004C570.221 508.905 549.583 486.604 529.162 464.105C529.783 470.35 529.595 479.23 529.602 485.632L529.63 519.994C529.638 525.972 529.745 534.086 530.149 539.9C530.906 550.799 544.864 548.524 544.494 552.78C542.961 553.452 507.298 553.55 504.464 552.981C504.086 550.709 503.958 550.89 506.467 550.348C518.03 547.848 518.494 545.257 518.543 532.297C518.663 500.214 518.476 466.484 518.691 434.293C519.038 433.749 519.384 433.205 519.731 432.661Z"/><path fill="#F3F2F2" transform="scale(0.574219 0.574219)" d="M696.719 431.28C701.27 434.122 735.461 526.18 741.943 538.178C743.794 541.605 747.551 546.569 751.197 548.183C753.615 549.254 756.47 549.131 758.18 551.358L757.969 552.162C754.287 553.736 743.521 552.483 739.034 552.597C736.059 552.673 717.358 553.75 715.951 551.75C717.361 548.931 723.872 549.075 724.565 545.266C725.751 538.744 716.435 518.64 713.914 512.113C709.319 512.394 704.261 512.365 699.625 512.432L674.881 512.471C671.941 519.635 663.224 538.398 664.62 545.726C665.311 549.359 671.141 550.134 674.713 552.032L675.225 552.309C670.921 553.08 637.184 553.546 635.649 551.956C636.696 548.443 644.609 548.809 646.419 546.906C654.825 538.066 661.051 518.581 665.403 507.706L685.87 456.563C687.727 451.989 694.511 434.441 696.719 431.28Z"/><path fill="#242323" transform="scale(0.574219 0.574219)" d="M693.948 459.736C695.137 460.858 709.362 499.437 710.889 504.06C705.738 504.298 700.381 504.29 695.209 504.354C689.548 504.334 683.888 504.268 678.228 504.156C682.581 490.043 688.996 474.072 693.948 459.736Z"/><path fill="#F3F2F2" transform="scale(0.574219 0.574219)" d="M474.625 434.563C478.781 434.469 491.785 433.413 494.493 436.159C492.729 438.498 488.068 438.481 485.143 438.939C483.592 440.073 481.295 441.992 481.005 443.88C476.79 471.214 484.718 504.075 475.438 530.391C466.835 554.79 432.646 560.749 411.234 551.452C385.164 540.132 385.347 517.499 385.379 493.325L385.373 460.266C385.359 456.045 385.602 447.441 384.164 443.631C382.722 439.809 375.886 439.048 371.951 437.723C370.715 436.368 371.102 436.831 370.913 434.576C375.89 434.488 413.238 434.575 414.653 435.243L414.788 437.267C413.397 439.211 401.722 439.052 401.528 446.361C401.302 454.869 400.77 464.569 401.367 473.119C402.897 495.012 395.884 524.292 414.302 540.585C426.148 550.863 449.849 549.446 459.252 536.256C470.969 519.819 466.869 493.492 467.842 474.024C468.238 466.104 468.41 451.313 467.361 443.884C462.879 436.917 460.563 440.395 454.353 437.494C453.945 436.093 453.91 436.191 454.279 434.792C455.475 434.021 471.708 434.536 474.625 434.563Z"/><path fill="#F3F2F2" transform="scale(0.574219 0.574219)" d="M397.939 585.233C402.269 584.466 415.468 584.455 419.969 584.953C425.122 585.522 428.023 588.132 430.875 592.187C431.945 601.617 430.768 605.556 422.375 610.238C428.993 620.899 434.178 629.297 445.5 634.247C435.6 634.862 434.258 635.46 427.509 628.187C423.271 622.606 420.016 618.184 416.207 612.302L409.641 612.044C409.447 618.21 409.43 624.952 409.994 631.081L415.959 633.963C412.518 634.025 401.065 634.962 399.239 633.493C400.212 631.853 400.779 631.985 402.779 630.907C403.542 621.454 403.118 599.297 402.591 588.786C402.524 587.446 399.409 586.041 397.939 585.233Z"/><path fill="#242323" transform="scale(0.574219 0.574219)" d="M409.605 587.578C417.318 587.195 424.015 588.722 424.321 598.405C424.426 601.694 422.969 604.094 421.208 606.752C405.544 617.429 409.398 596.654 409.605 587.578Z"/><path fill="#F3F2F2" transform="scale(0.574219 0.574219)" d="M612.121 584.846C613.13 584.579 612.659 584.512 613.539 585.011L613.14 585.781C612.091 586.294 610.627 586.864 609.948 587.853C606.806 592.433 611.871 623.511 612.796 630.191C614.708 631.542 617.77 632.967 619.923 634.065C616.272 634.079 603.177 634.813 600.81 633.422C602.492 632.345 604.117 631.401 605.845 630.399C605.281 619.166 603.532 608.399 602.811 597.276C596.372 609.554 590.903 623.634 584.595 635.32C578.428 622.705 572.37 610.037 566.42 597.318C566.163 599.942 566.042 602.943 565.879 605.606C565.086 614.086 564.449 622.182 564.356 630.699L570.649 633.743C567.439 633.93 557.545 634.755 555.403 633.156C556.497 631.749 557.826 631.621 559.726 630.907C561.118 624.638 563.474 595.641 563.243 589.267C561.027 587.632 558.79 586.561 556.357 585.28C559.917 584.936 563.558 584.982 567.141 584.957C573.813 597.303 579.263 611.173 586.425 623.699C591.588 612.556 598.907 595.178 604.54 584.888L612.121 584.846Z"/><path fill="#F3F2F2" transform="scale(0.574219 0.574219)" d="M538.487 584.73C540.366 584.634 541.985 584.477 543.3 585.592L542.857 586.308C541.89 586.626 539.068 587.485 538.879 588.243C536.109 599.382 541.308 616.06 535.323 626.671C533.162 630.523 529.534 633.336 525.265 634.471C519.426 636.075 512.226 634.84 506.929 631.565C497.782 626.625 499.424 607.757 500.091 598.314C501.087 584.241 496.078 588.487 494.772 585.259L496.378 584.978C502.368 584.838 507.172 584.798 513.163 585.082L506.624 587.943C505.913 597.845 505.653 613.502 507.524 623.162C509.844 635.134 529.048 635.082 532.508 624.076C534.15 618.853 534.702 591.452 532.913 587.629C531.724 586.453 530.844 586.494 529.164 586.182L528.495 586.063L528.397 585.56C530.884 584.745 535.683 584.814 538.487 584.73Z"/><path fill="#F3F2F2" transform="scale(0.574219 0.574219)" d="M318.993 584.754C326.623 584.413 336.406 584.85 338.634 593.948C339.585 597.941 338.824 602.151 336.535 605.559C333.492 610.12 325.978 615.222 320.563 611.615C321.427 610.326 334.146 608.51 331.894 597.555C329.989 588.288 324.628 586.78 316.273 588.22C316.051 592.547 316.104 597.381 316.059 601.75C316.046 610.374 315.745 622.553 316.606 630.891C318.435 631.909 321.501 633.151 323.496 634.031C316.855 634.011 310.214 634.105 303.576 634.311L309.746 630.298C310.066 624.631 310.359 592.332 309.224 588.537C307.605 586.861 305.202 586.171 302.966 585.272C307.865 584.864 313.996 584.876 318.993 584.754Z"/><defs><linearGradient id="gradient_0" gradientUnits="userSpaceOnUse" x1="661.7901" y1="608.58594" x2="629.55835" y2="609.89984"><stop offset="0" stop-color="#D2D1D3"/><stop offset="1" stop-color="white"/></linearGradient></defs><path fill="url(#gradient_0)" transform="scale(0.574219 0.574219)" d="M627.492 585.143C637.721 584.672 649.113 584.795 659.541 584.523C659.588 586.763 660.096 591.073 658.504 592.591C656.9 592.032 656.772 590.878 655.748 588.986C652.789 587.374 644.25 587.94 640.531 587.984L640.503 606.965L640.522 610.425C640.561 617.321 640.741 624.215 641.065 631.104C645.659 631.223 650.111 631.434 654.711 631.17C659.91 630.871 659.212 625.975 663.216 625C663.841 627.273 662.2 631.933 661.486 634.333C650.548 634.579 639.508 634.26 628.494 634.417L633.991 630.906C634.229 619.72 634.758 600.409 633.63 588.866C633.469 587.225 629.234 585.842 627.492 585.143Z"/><path fill="#F3F2F2" transform="scale(0.574219 0.574219)" d="M687.783 583.594C693.835 583.251 695.553 583.586 701.488 585.016C701.548 588.476 701.39 592.355 701.32 595.849C698.695 590.087 694.298 583.228 686.7 586.968C684.704 587.928 683.227 589.712 682.657 591.853C680.265 601.149 695.461 606.372 700.523 611.949C702.453 614.075 702.863 614.945 704.208 617.439C704.331 629.666 699.731 634.412 687.453 635.19C682.637 634.99 680.421 634.27 676.06 632.622C675.872 627.952 676.074 625.282 676.842 620.723C677.463 623.223 678.468 626.127 679.258 628.618C684.823 633.653 694.219 634.534 697.549 627.465C702.753 616.418 679.743 610.471 677.615 600.369C675.648 591.029 679.796 586.084 687.783 583.594Z"/><path fill="#F3F2F2" transform="scale(0.574219 0.574219)" d="M479.288 584.738C480.211 584.684 481.498 584.53 482.269 584.981C483.778 585.864 483.149 592.114 482.435 593.269C481.071 592.845 480.482 590.839 479.242 589.002C476.238 587.311 467.65 587.973 463.86 588.047L463.974 606.982L476.721 606.99C477.599 605.494 478.152 604.041 479.92 603.804C481.42 605.715 480.533 612.949 480.368 615.821C478.66 613.77 478.187 612.843 476.901 610.475C472.638 610.424 468.266 610.498 463.993 610.52L463.99 622.3C463.828 630.98 463.782 631.177 472.02 633.865C469.308 633.924 454.27 634.473 452.876 633.692L453.611 632.578C455.305 632.252 455.63 631.933 457.06 631.021L457.522 630.722C457.678 619.464 458.049 598.596 457.221 588.022C455.102 587.094 452.658 586.241 450.472 585.418C457.395 584.443 471.501 584.874 479.288 584.738Z"/><path fill="#F3F2F2" transform="scale(0.574219 0.574219)" d="M349.044 585.479C358.142 584.535 371.989 584.983 381.776 584.742C381.726 587.143 381.857 590.774 381.151 592.938L380.379 592.839C379.124 591.212 378.781 590.699 377.801 588.892C374.943 587.619 366.012 588.264 362.488 588.378L362.503 607.475C363.377 608.533 363.389 608.434 363.536 609.783L364.661 610.186C364.205 610.314 363.512 610.631 363.052 610.821C361.845 613.645 362.66 627.902 362.921 631.56C369.059 631.673 374.285 631.979 380.303 630.526C381.344 628.746 382.468 626.157 384.302 625.568C385.467 627.592 383.767 632.308 383.125 634.553L350.414 634.443C352.273 633.4 354.16 632.239 355.997 631.145C356.524 622.563 356.447 598.191 355.427 588.731C355.278 587.346 350.695 586.008 349.044 585.479Z"/><path fill="#F3F2F2" transform="scale(0.574219 0.574219)" d="M640.503 606.965C644.065 607.007 649.931 607.291 653.235 606.6C654.118 605.375 655.208 603.475 656.504 603.02C657.865 604.997 657.69 612.285 657.136 614.635L656.312 614.826C654.172 613.226 654.484 611.161 653.923 610.814C651.877 609.548 642.821 610.323 640.522 610.425L640.503 606.965Z"/><path fill="#F3F2F2" transform="scale(0.574219 0.574219)" d="M375.312 607.444C376.072 605.778 376.515 604.257 377.94 603.2L378.558 603.443C379.201 606.056 379.659 612.874 378.168 615.133C376.805 614.358 376.296 612.274 375.707 610.662C372.997 610.624 367.024 610.7 364.661 610.186L363.536 609.783C363.389 608.434 363.377 608.533 362.503 607.475L375.312 607.444Z"/><path fill="#242323" transform="scale(0.574219 0.574219)" d="M912.376 470.482C917.218 476.151 915.394 520.925 914.852 529.959C909.068 618.753 875.067 703.375 817.807 771.486C805.47 786.411 768.74 826.002 751.499 832.682C739.887 837.181 726.005 837.838 713.697 839.001C711.963 839.027 711.677 839.095 709.946 838.713C709.972 838.665 727.463 825.166 730.012 822.836C743.958 810.002 756.107 795.343 766.131 779.257C803.257 720.455 805.765 654.762 826.373 590.548C838.519 552.698 860.913 514.544 890.075 487.422C896.819 481.15 904.14 474.673 912.376 470.482Z"/><path fill="#242323" transform="scale(0.574219 0.574219)" d="M179.055 760.832C200.811 761.837 229.974 769.132 251.065 774.031C320.603 790.185 380.561 823.088 441.795 858.58C488.344 885.56 539.145 902.364 592.828 909.648C590.308 910.4 587.45 911.024 584.871 911.646C526.771 925.06 447.829 921.122 390.745 904.585C318.927 883.355 254.006 843.497 202.577 789.059C196.19 782.181 183.33 768.593 179.055 760.832Z"/><path fill="#A6A4A2" transform="scale(0.574219 0.574219)" d="M891.376 348.991C895.109 351.991 897.786 354.982 900.793 358.671C898.501 357.392 889.948 351.902 888.954 349.898C889.676 349.861 890.345 350.326 891.038 350.643L891.685 350.308L891.376 348.991Z"/></svg>