<?xml version="1.0" encoding="utf-8" ?><svg xmlns="http://www.w3.org/2000/svg" xmlns:xlink="http://www.w3.org/1999/xlink" width="588" height="588" viewBox="0 0 588 588"><path fill="white" transform="scale(0.574219 0.574219)" d="M0 0L1024 0L1024 1024L0 1024L0 0Z"/><path transform="scale(0.574219 0.574219)" d="M503.149 55.7341C505.426 55.6601 517.163 54.9798 518.26 56.2154C523.071 61.6337 526.233 68.7607 530.651 74.7229C577.82 138.368 646.813 189.554 714.865 229.152C743.718 245.596 772.737 261.746 801.918 277.6C834.615 295.78 867.07 313.608 896.156 337.329C906.118 345.454 914.156 351.847 922.837 361.573C878.189 325.986 824.443 301.514 773.603 276.462C693.121 236.804 615.994 190.853 553.963 125.044C536.019 106.008 521.355 87.7619 509.413 64.3803C495.346 64.9981 475.999 69.87 466.341 80.3735C438.589 110.555 471.713 165.655 492.757 189.933C561.836 269.628 664.139 314.395 760.959 350.542C832.742 377.342 918.643 402.985 951.863 479.866C953.189 483.002 953.188 496.259 953.244 500.149C955.206 620.897 908.814 737.419 824.395 823.775C743.136 907.533 631.572 955.042 514.875 955.582C470.651 955.818 426.631 949.562 384.223 937.015C303.724 912.51 231.666 866.014 176.168 802.763C169.232 794.815 153.045 775.645 148.108 766.477C228.04 765.904 306.918 784.742 377.965 821.375C408.58 836.825 439.625 855.911 470.158 871.965C507.9 891.718 547.883 906.857 589.244 917.053C596.916 918.947 621.145 925.298 627.581 923.726C655.104 917.005 693.047 900.36 716.834 886.915C728.393 880.266 739.597 873.017 750.398 865.196C737.42 866.742 729.26 868.909 715.514 869.492C676.729 871.137 639.312 864.429 602.367 852.941C552.143 837.325 506.995 812.029 459.666 789.775C413.266 767.779 365.055 749.829 315.568 736.123C293.186 729.929 270.635 724.36 247.941 719.425C203.403 709.546 157.56 702.183 118.156 677.59C112.18 673.86 105.976 669.961 100.835 665.121C86.5989 651.718 72.8174 579.819 69.94 559.111C68.1651 545.655 67.0536 532.12 66.6097 518.554C62.6694 401.848 105.476 288.397 185.528 203.383C246.129 137.677 324.906 91.4829 411.836 70.6756C428.945 66.6096 445.472 64.4583 462.744 61.7285C477.452 59.404 487.793 56.2504 503.149 55.7341Z"/><path fill="white" transform="scale(0.574219 0.574219)" d="M447.036 80.2362C447.47 81.0892 445.061 86.2768 444.591 87.6194C434.051 117.704 449.29 155.747 466.943 180.992C528.177 268.56 636.776 318.037 733.391 355.995C805.624 384.375 881.591 400.523 928.918 468.12C878.925 495.016 846.943 545.355 830.281 598.336C820.233 630.287 814.176 664.054 806.468 696.718C794.724 746.478 775.541 796.018 739.15 833.145C731.067 841.391 721.393 850.625 711.675 856.83C684.129 858.471 637.401 848.644 611.187 840.382C564.268 825.595 520.681 802.208 476.531 781.069C440.364 763.608 403.131 748.448 365.055 735.677C335.722 725.976 305.947 717.668 275.829 710.781C227.246 699.816 177.131 693.746 132.571 669.708C108.113 656.514 106.715 647.156 99.0615 620.874C94.9142 608.348 91.4575 592.732 88.7119 579.722C148.237 529.953 176.619 474.609 191.748 399.087C198.291 366.426 203.321 332.858 212.337 300.942C230.08 238.136 267.449 183.706 319.526 144.406C329.589 136.812 339.672 130.14 350.245 123.175C328.418 130.422 300.752 149.768 283.147 164.576C231.379 208.114 203.893 264.989 190.046 330.268C183.883 359.322 178.851 391.218 171.708 419.549C162.391 456.504 145.334 497.818 123.502 529.062C116.214 539.491 97.4298 563.799 87.4273 571.556C86.2483 563.352 85.151 555.479 84.3689 547.232C72.6463 434.569 106.787 321.931 179.087 234.735C235.857 165.57 312.297 115.28 398.284 90.5232C411.83 86.7561 433.076 81.5561 447.036 80.2362Z"/><path transform="scale(0.574219 0.574219)" d="M235.618 438.714C244.8 438.568 254.128 439.174 263.404 439.026C292.706 438.556 328.991 435.924 347.648 463.788C366.262 491.589 359.901 532.185 331.481 551.231C331.106 551.462 330.731 551.694 330.356 551.925C323.659 555.794 316.333 558.452 308.714 559.778C305.152 560.384 301.555 560.762 297.945 560.908C285.049 561.473 270.632 560.641 257.601 560.927C253.652 561.014 237.809 561.426 235.191 560.699L234.891 559.716C236.089 558.296 239.694 557.275 241.571 556.52C246.134 554.682 249.397 549.921 249.439 544.874C249.691 514.558 249.863 484.175 249.461 453.86C249.439 452.15 249.017 449.944 248.241 448.405C246.688 445.452 245.908 445.043 243.042 443.954C240.336 442.926 234.797 442.917 233.742 440.436C234.447 438.919 233.91 439.54 235.618 438.714Z"/><path fill="white" transform="scale(0.574219 0.574219)" d="M276.406 447.765C287.968 447.375 295.778 446.842 307.075 449.966C332.28 456.722 341.218 484.996 339.093 508.498C337.725 523.635 333.155 533.868 321.498 543.605C305.381 555.353 285.783 552.726 267.003 551.019C266.416 518.206 265.747 480.424 266.771 447.812L276.406 447.765Z"/><path transform="scale(0.574219 0.574219)" d="M527.08 436.754C528.228 436.856 530.005 436.94 530.818 437.72C538.001 444.608 545.591 453.242 552.353 460.412C573.75 483.031 594.954 505.83 615.966 528.806C615.309 502.568 616.127 474.881 614.846 449.063C609.419 440.171 605.448 445.374 599.649 440.941L599.641 439.879C600.124 439.361 601.17 438.469 601.836 438.462C608.43 438.511 615.24 438.82 621.828 438.951C626.379 439.041 639.247 437.507 642.515 439.918C642.46 446.037 628.832 438.832 627.678 452.32C626.817 462.377 627.092 473.624 627.074 483.559L627.01 547.839C627.007 551.413 627.661 559.812 625.716 561.998C620.818 559.956 601.278 537.399 596.547 532.359C576.883 511.575 557.452 490.574 538.255 469.36C538.404 484.448 538.464 499.537 538.434 514.627C538.442 526.184 537.791 538.685 539.547 550.066C540.732 557.753 552.824 555.959 553.924 560.088L553.497 560.577C551.063 561.198 516.091 561.285 512.053 560.833L511.51 559.895C513.796 554.84 525.625 559.228 526.377 546.421C526.842 538.496 526.662 529.821 526.701 521.828L526.654 467.655C526.636 458.578 526.251 445.4 527.08 436.754Z"/><path transform="scale(0.574219 0.574219)" d="M711.601 435.669C712.748 435.945 713.733 436.261 714.304 437.401C717.571 443.931 720.54 451.693 723.316 458.451L740.94 501.296C747.782 518.155 754.255 538.407 764.841 553.175C766.593 555.618 775.757 557.225 776.538 560.203C774.634 561.24 734.248 561.563 732.455 560.417C732.388 555.169 745.325 560.725 739.156 544.029C736.856 537.803 732.246 525.95 729.944 519.345C725.097 519.136 719.644 519.232 714.75 519.21C706.246 519.18 697.411 519.026 688.945 519.413C685.607 528.16 678.254 543.782 677.937 553.546C677.822 557.061 685.382 556.731 685.989 560.224L685.256 560.946C677.455 561.119 656.609 561.84 649.516 560.789C648.578 559.518 648.936 560.237 649.006 558.243C650.483 557.203 654.822 556.682 656.79 556.091C659.766 555.198 663.75 550.427 664.946 547.81C669.058 538.812 673.014 529.052 676.757 519.91L698.662 465.957C702.45 456.712 707.176 444.463 711.601 435.669Z"/><path fill="white" transform="scale(0.574219 0.574219)" d="M709.294 464.907C710.624 466.542 725.221 505.872 727.023 510.515L711.25 510.519L692.709 510.495C697.272 495.89 704.116 479.709 709.294 464.907Z"/><path transform="scale(0.574219 0.574219)" d="M481.934 438.939C486.864 438.934 496.187 438.124 500.497 438.884C501.283 440.089 501.336 439.993 501.268 441.407C499.246 443.876 495.642 442.678 492.752 443.332C484.2 445.267 486.128 459.657 486.129 466.751L486.146 495.968C486.153 512.008 487.321 531.032 477.757 544.895C457.89 573.691 403.341 569.149 391.482 534.79C387.191 522.357 387.844 511.695 387.862 498.757L387.911 466.625C387.917 460.594 388.175 454.492 387.087 448.533C382.518 442.539 380.333 444.223 373.65 441.833C372.826 440.332 373.12 440.703 373.465 438.567C380.211 438.383 388.867 438.965 395.828 438.992C401.472 439.014 413.927 438.46 418.995 439.201C419.617 445.258 409.32 443.05 406.429 448.037C403.681 452.776 404.167 505.445 404.672 514.649C404.911 518.984 405.317 523.343 406.363 527.566C408.685 536.934 414.057 545.537 422.495 550.518C430.241 555.091 440.045 555.725 448.642 553.46C456.636 551.354 463.191 546.283 467.284 539.101C470.204 533.977 471.6 528.153 472.384 522.353C473.565 513.624 474.535 453.085 472.749 447.839C471.207 443.306 463.798 443.532 460.125 441.785C459.104 440.273 459.3 441.083 459.515 439.272C461.994 438.26 478.015 438.903 481.934 438.939Z"/><path transform="scale(0.574219 0.574219)" d="M399.595 594.727C405.789 594.266 412.794 594.484 418.999 594.447C427.677 594.395 435.875 599.493 434.868 609.075C434.245 615.003 430.494 617.846 426.179 621.363C430.461 627.685 435.771 636.02 441.183 641.403C442.011 642.227 446.986 644.778 448.317 645.467L447.619 646.079C438.58 647.655 435.58 644.738 430.143 638.279C426.348 633.321 423.3 628.293 419.219 623.431C416.934 623.255 414.34 623.277 412.025 623.243C412.094 628.878 410.904 637.014 412.94 641.691C414.157 644.486 416.956 645.058 419.709 646.031C412.747 645.932 405.783 645.921 398.821 645.998C401.24 644.722 402.859 643.712 405.116 642.245C406.375 630.152 404.646 614.851 405.341 602.451C405.734 595.431 401.849 597.931 399.595 594.727Z"/><path fill="white" transform="scale(0.574219 0.574219)" d="M412.014 597.825C416.34 597.726 419.017 597.334 422.853 599.79C429.241 603.88 428.949 611.899 424.867 617.575C420.498 620.692 417.28 620.327 412.076 620.392L412.014 597.825Z"/><path transform="scale(0.574219 0.574219)" d="M614.176 594.517L626.258 594.318C623.119 596.185 621.229 596.209 619.34 599.294C618.635 603.839 622.078 636.51 623.823 642.403C624.339 644.146 626.324 643.469 627.56 645.349C624.96 645.874 612.556 645.797 608.939 645.856C610.363 645.245 614.772 643.906 615.13 642.77C616.313 639.013 614.637 625.488 614.301 621.659C613.907 616.941 613.547 612.31 612.936 607.61C606.35 618.943 600.358 634.72 594.235 646.816C588.227 637.014 581.384 618.99 575.176 607.76C574.458 611.854 572.151 640.175 573.202 642.802C574.328 644.207 575.123 644.255 576.858 644.786L577.497 644.976L577.554 645.433C574.546 646.208 565.044 646.034 561.312 646.065C562.575 645.525 567.337 643.613 567.573 642.337C570.077 628.47 571.286 613.402 571.517 599.293C571.547 597.405 567.627 596.01 565.99 594.677C568.561 594.243 573.455 594.473 576.239 594.52C581.486 603.347 591.172 625.331 595.584 635.215C600.912 622.422 608.349 607.562 614.176 594.517Z"/><path transform="scale(0.574219 0.574219)" d="M500.611 594.7C504.185 594.281 514.607 594.746 519.764 594.44L513.018 597.96C512.962 608.825 512.73 619.196 513.332 630.327C513.533 643.233 530.629 649.104 538.085 638.349C542.479 632.012 540.95 621.286 541.151 613.752C541.27 609.307 541.344 602.426 540.527 598.303C538.646 596.227 535.878 595.665 533.142 594.752C536.979 594.605 541.252 594.671 545.125 594.646C547.577 594.529 548.355 594.444 550.736 594.807L551.003 595.422C549.9 596.1 546.409 597.884 546.232 599.257C544.589 611.996 549.743 630.73 540.993 641.166C534.714 648.654 518.61 648.607 511.787 641.998C507.153 637.509 506.019 632.063 505.807 625.831C505.651 616.666 505.747 607.467 505.672 598.286C504.048 597.095 501.77 596.181 500.611 594.7Z"/><path transform="scale(0.574219 0.574219)" d="M302.818 594.689C311.457 594.519 322.39 593.406 330.601 595.924C343.379 599.844 341.262 618.064 329.866 622.213C327.387 623.115 322.486 624.582 320.078 623.447C320.395 620.903 326.601 620.829 328.654 618.465C330.875 615.907 332.354 613.202 332.372 609.774C332.364 606.438 330.995 603.25 328.58 600.947C324.818 597.405 322.095 597.426 317.376 597.475L316.147 597.719C314.937 599.736 315.473 606.992 315.543 609.557C315.803 619.148 315.242 628.708 315.451 638.299C315.572 643.86 319.081 644.31 323.525 645.945C316.544 645.863 309.562 645.848 302.58 645.9C304.885 644.603 306.404 643.472 308.515 641.93C308.785 627.648 308.61 612.524 308.533 598.191C306.516 596.893 304.109 596.412 302.818 594.689Z"/><path transform="scale(0.574219 0.574219)" d="M351.116 594.69C361.273 595.082 373.216 594.719 383.521 594.719C383.538 596.853 383.847 601.575 382.99 603.159L382.119 602.99C377.864 596.104 370.774 597.976 363.511 598.306L363.474 618.158L377.603 618.193C378.138 616.656 378.229 615.984 379.405 614.842L380.181 615.02C381.351 617.875 380.827 621.904 380.538 624.999C378.925 624.988 378.526 623.149 377.307 622.398C374.82 620.866 366.457 621.593 363.516 621.701L363.519 630.25C363.467 633.022 362.981 639.804 364.191 642.045C366.413 643.229 369.631 643.202 372.063 643.137C384.503 642.805 380.876 641.401 387.23 634.94L387.666 634.504C386.979 638.419 385.985 642.355 385.063 646.228C373.595 646.296 362.352 645.91 350.805 646.192C352.155 645.5 356.378 643.584 356.434 641.717C356.847 627.789 356.988 612.682 356.323 598.771C356.248 597.205 352.446 596.961 351.116 594.69Z"/><path transform="scale(0.574219 0.574219)" d="M640.57 594.661C646.013 594.116 665.569 594.516 671.938 594.51C671.936 598.24 671.701 601.723 671.468 605.447C668.464 599.067 667.504 597.503 659.575 597.837C657.26 597.935 654.335 597.956 651.981 598.013L651.987 617.923L666.066 618.053C667.056 615.958 668.069 614.031 669.145 611.986C669.411 614.392 670.095 624.184 668.88 625.659C667.523 624.815 666.726 623.065 665.493 621.579C661.956 620.905 655.802 621.373 652.01 621.517L652.03 631.49C652.03 635.053 652.201 638.595 652.345 642.154C655.441 642.776 661.829 643.398 664.972 642.911C670.87 641.998 672.651 638.916 675.884 634.568C675.304 638.856 674.754 641.804 673.776 646.021C662.452 646.294 651.238 645.807 639.884 646.161C641.058 645.518 644.93 643.446 645.013 641.899C645.757 628.123 645.57 612.655 644.973 598.846C644.889 596.901 642.08 597.423 640.57 594.661Z"/><path transform="scale(0.574219 0.574219)" d="M456.097 594.647C463.889 594.1 480.193 594.603 488.6 594.633C488.769 598.522 488.763 601.604 488.649 605.501C482.925 595.382 479.663 597.812 468.801 598.087C468.707 604.635 468.793 611.39 468.791 617.957C472.872 617.964 477.5 618.724 481.407 617.685C484.108 616.966 482.969 615.131 485.026 614.219L485.846 614.687C486.324 617.074 486.841 623.812 485.243 625.585C483.71 624.634 483.985 624.318 483.073 622.301C480.951 620.894 471.915 621.476 468.853 621.526C468.896 625.365 468.839 629.565 468.673 633.391C468.292 642.148 469.614 643.606 477.416 646.031C470.053 645.864 462.688 645.865 455.326 646.036C457.362 645.205 460.129 644.403 461.418 642.51C462.523 640.887 462.595 602.465 461.691 598.978C461.173 596.981 457.764 595.581 456.097 594.647Z"/><path transform="scale(0.574219 0.574219)" d="M704.637 593.202C709.584 593.447 710.992 593.835 715.437 595.853C715.458 598.152 715.722 602.352 714.786 604.239L714.12 603.921C708.088 589.43 689.735 598.342 697.248 609.068C702.385 616.215 719.193 622.507 718.44 633.118C717.657 644.149 705.958 647.763 696.924 647.205C693.636 646.529 691.5 645.581 688.629 643.954C688.522 640.774 688.566 637.155 688.958 633.994C689.898 634.689 691.802 640.553 694.456 642.208C697.508 644.113 699.231 644.777 702.987 644.321C706.088 643.945 708.197 642.921 710.091 640.506C716.88 632.909 705.582 626.033 700.183 621.816C692.461 615.785 684.599 608.072 692.827 598.436C696.199 594.486 699.701 593.709 704.637 593.202Z"/><path fill="white" transform="scale(0.574219 0.574219)" d="M933.32 475.922L934.091 476.483C938.262 485.696 937.176 519.101 936.741 530.037C932.047 625.103 896.235 715.99 834.818 788.706C819.723 806.773 790.062 838.842 768.398 850.129C762.263 853.325 736.548 855.791 729.044 856.469C727.41 856.549 727.361 856.589 725.78 856.255C771.071 824.389 798.827 776.874 814.39 724.486C826.135 684.95 831.618 643.506 843.965 604.174C854.874 569.42 872.003 535.869 896.412 508.621C907.628 496.067 918.75 484.801 933.32 475.922Z"/><path fill="white" transform="scale(0.574219 0.574219)" d="M175.031 775.418C190.173 778.083 205.704 779.351 221.251 782.618C260.388 790.842 300.697 802.889 337.378 818.763C359.45 828.431 381.033 839.182 402.047 850.976C424.726 863.537 445.841 876.195 469.232 887.815C503.134 904.915 539.155 917.438 576.353 925.057C585.94 926.968 594.666 927.871 604.211 929.42L595.391 931.497C570.231 936.236 544.746 939.053 519.159 939.924C481.725 940.836 430.629 933.885 394.846 923.767C321.545 902.529 255.052 862.537 201.934 807.741C194.861 800.361 179.919 784.172 175.031 775.418Z"/></svg>